<svg width="590" height="100" viewBox="0 0 590 100" fill="none" xmlns="http://www.w3.org/2000/svg">
<g id="Color=Colorful">
<g id="a">
<path id="Subtract" fill-rule="evenodd" clip-rule="evenodd" d="M50 0C22.3858 0 0 22.3858 0 50C0 77.6142 22.3858 100 50 100H100V50V0H50ZM50 0V4H69.6287C63.6024 1.42521 56.9676 0 50 0ZM100 50C100 50.6698 99.9868 51.3366 99.9607 52H50V46H99.8423C99.9468 47.3196 100 48.6536 100 50ZM50 100C58.6035 100 66.6994 97.827 73.7689 94H50V100ZM97.3852 34C98.0431 35.949 98.584 37.9518 98.9998 40H50V34H97.3852ZM94.9124 28H50V22H91.4307C92.724 23.91 93.8887 25.9141 94.9124 28ZM86.6609 16H50V10H80.0049C82.3995 11.7991 84.6273 13.8082 86.6609 16ZM50 64V58H99.3634C99.0347 60.0441 98.5821 62.0467 98.0135 64H50ZM50 70H95.8396C94.9319 72.0774 93.8872 74.0812 92.7168 76H50V70ZM50 82H88.4204C86.6176 84.1621 84.6357 86.1697 82.4976 88H50V82Z" fill="#F02B2B"/>
</g>
<g id="i">
<path id="Rectangle 2" d="M160 0H110V100H160V0Z" fill="#16784A"/>
<rect id="Rectangle 3" width="50" height="50" rx="25" transform="matrix(-1 0 0 1 160 0)" fill="#06401A"/>
</g>
<g id="r">
<path id="Rectangle 2_2" d="M220 0H170V100H220V0Z" fill="#4D4DFF"/>
<path id="Rectangle 3_2" d="M220 0V50H270C270 22.3858 247.614 0 220 0Z" fill="#4D4DFF"/>
<path id="Rectangle 4" d="M220 0V50H170C170 22.3858 192.386 0 220 0Z" fill="#262680"/>
</g>
<g id="a_2">
<path id="Rectangle 1" d="M280 50C280 22.3858 302.386 0 330 0H380V100H330C302.386 100 280 77.6142 280 50Z" fill="#E6E600"/>
<path id="Rectangle 2_3" d="M380 50C380 22.3858 357.614 0 330 0V100C357.614 100 380 77.6142 380 50Z" fill="#B3B300"/>
</g>
<g id="m">
<path id="Rectangle 3_3" d="M590 50C590 22.3858 567.614 0 540 0C512.386 0 490 22.3858 490 50V100H590V50Z" fill="#A626BF"/>
<path id="Rectangle 2_4" d="M490 50C490 22.3858 512.386 0 540 0V100C512.386 100 490 77.6142 490 50Z" fill="#6F1980"/>
<path id="Subtract_2" fill-rule="evenodd" clip-rule="evenodd" d="M440 0C412.386 0 390 22.3858 390 50V100H440H490V50C490 54.8767 489.302 59.5904 488 64.0464V35.9536C486.631 31.2675 484.594 26.8662 482 22.8597V77.1403C480.244 79.852 478.233 82.3828 476 84.6988V15.3012C474.146 13.3783 472.14 11.6035 470 9.99634V90.0037C468.1 91.4305 466.096 92.7252 464 93.8741V6.12588C462.074 5.06986 460.07 4.13701 458 3.33795V96.662C456.056 97.4125 454.053 98.045 452 98.5507V1.44929C450.043 0.96717 448.04 0.600302 446 0.3563V99.6437C444.033 99.879 442.031 100 440 100V0Z" fill="#A626BF"/>
</g>
</g>
</svg>
